  0
SECTION
  2
HEADER
  9
$ACADVER
  1
AC1009
  9
$INSBASE
 10
0.0
 20
0.0
 30
0.0
  9
$EXTMIN
 10
0.0
 20
0.0
 30
0.0
  9
$EXTMAX
 10
0.0
 20
0.0
 30
0.0
  0
ENDSEC
  0
SECTION
  2
TABLES
  0
TABLE
  2
VPORT
 70
0
  0
ENDTAB
  0
TABLE
  2
LTYPE
 70
1
  0
LTYPE
  2
CONTINUOUS
 70
0
  3
Solid line
 72
65
 73
0
 40
0.0
  0
ENDTAB
  0
TABLE
  2
LAYER
 70
1
  0
LAYER
  2
0
 70
64
 62
7
  6
continuous
  0
ENDTAB
  0
TABLE
  2
STYLE
 70
1
  0
STYLE
  2
STANDARD
 70
0
 40
0
 41
1.0
 50
0.0
 71
0
 42
1
 3
ARIAL.TTF
 4

  0
ENDTAB
  0
TABLE
  2
VIEW
 70
0
  0
ENDTAB
  0
ENDSEC
  0
SECTION
  2
BLOCKS
  0
ENDSEC
  0
SECTION
  2
ENTITIES
  0
LINE
  8
0
 62
0
 10
56.742
 20
-87.369
 30
0.0
 11
57.029
 21
-87.183
 31
0.0
  0
LINE
  8
0
 62
0
 10
-6.5
 20
-6.5
 30
0.0
 11
6.5
 21
6.5
 31
0.0
  0
POLYLINE
  8
0
 62
0
 70
1
 66
1
 10
0.0
 20
0.0
 30
0.0
  0
VERTEX
  8
0
 10
264.916
 20
-44.5997
 30
0.0
  0
VERTEX
  8
0
 10
264.916
 20
-31.5997
 30
0.0
 42
-0.41421356237310336
  0
VERTEX
  8
0
 10
265.416
 20
-31.099699999999995
 30
0.0
  0
VERTEX
  8
0
 10
278.416
 20
-31.0997
 30
0.0
 42
-0.4142135623730992
  0
VERTEX
  8
0
 10
278.916
 20
-31.5997
 30
0.0
  0
VERTEX
  8
0
 10
278.916
 20
-44.5997
 30
0.0
 42
-0.4142135623730534
  0
VERTEX
  8
0
 10
278.416
 20
-45.09970000000001
 30
0.0
  0
VERTEX
  8
0
 10
265.416
 20
-45.0997
 30
0.0
 42
-0.4142135623730992
  0
SEQEND
  8
0
  0
POLYLINE
  8
0
 62
0
 70
1
 66
1
 10
0.0
 20
0.0
 30
0.0
  0
VERTEX
  8
0
 10
281.7895
 20
-12.55
 30
0.0
  0
VERTEX
  8
0
 10
281.7895
 20
-25.55
 30
0.0
 42
-0.41421356237314083
  0
VERTEX
  8
0
 10
281.2895
 20
-26.04999999999999
 30
0.0
  0
VERTEX
  8
0
 10
268.2895
 20
-26.049999999999997
 30
0.0
 42
-0.41421356237314916
  0
VERTEX
  8
0
 10
267.7895
 20
-25.55
 30
0.0
  0
VERTEX
  8
0
 10
267.7895
 20
-12.55
 30
0.0
 42
-0.4142135623731356
  0
VERTEX
  8
0
 10
268.2895
 20
-12.050000000000013
 30
0.0
  0
VERTEX
  8
0
 10
281.2895
 20
-12.050000000000015
 30
0.0
 42
-0.4142135623731304
  0
SEQEND
  8
0
  0
POLYLINE
  8
0
 62
0
 70
1
 66
1
 10
0.0
 20
0.0
 30
0.0
  0
VERTEX
  8
0
 10
14.446368
 20
-65.65
 30
0.0
  0
VERTEX
  8
0
 10
8.445366
 20
-65.65
 30
0.0
 42
-0.41421356237315016
  0
VERTEX
  8
0
 10
7.945365999999997
 20
-65.15
 30
0.0
  0
VERTEX
  8
0
 10
7.945366
 20
-51.536881
 30
0.0
 42
-0.411946869449493
  0
VERTEX
  8
0
 10
8.441493
 20
-51.036896
 30
0.0
  0
VERTEX
  8
0
 10
14.442495
 20
-50.990416
 30
0.0
 42
-0.41648389417069415
  0
VERTEX
  8
0
 10
14.946368
 20
-51.490401
 30
0.0
  0
VERTEX
  8
0
 10
14.946368
 20
-65.15
 30
0.0
 42
-0.414213562373044
  0
SEQEND
  8
0
  0
POLYLINE
  8
0
 62
0
 70
1
 66
1
 10
0.0
 20
0.0
 30
0.0
  0
VERTEX
  8
0
 10
6.504200000000001
 20
-50.65
 30
0.0
  0
VERTEX
  8
0
 10
6.504199999999999
 20
-63.65
 30
0.0
 42
-0.4142135623731236
  0
VERTEX
  8
0
 10
6.0042
 20
-64.15
 30
0.0
  0
VERTEX
  8
0
 10
-6.9958
 20
-64.15
 30
0.0
 42
-0.41421356237312207
  0
VERTEX
  8
0
 10
-7.495799999999999
 20
-63.65
 30
0.0
  0
VERTEX
  8
0
 10
-7.495800000000001
 20
-50.65
 30
0.0
 42
-0.4142135623730716
  0
VERTEX
  8
0
 10
-6.9958
 20
-50.15
 30
0.0
  0
VERTEX
  8
0
 10
6.0042
 20
-50.15
 30
0.0
 42
-0.4142135623730805
  0
SEQEND
  8
0
  0
POLYLINE
  8
0
 62
0
 70
1
 66
1
 10
0.0
 20
0.0
 30
0.0
  0
VERTEX
  8
0
 10
68.380045
 20
-89.085816
 30
0.0
 42
-0.41648389417074605
  0
VERTEX
  8
0
 10
67.991136
 20
-88.491996
 30
0.0
  0
VERTEX
  8
0
 10
70.831126
 20
-75.130892
 30
0.0
 42
-0.4142135623730363
  0
VERTEX
  8
0
 10
71.424156
 20
-74.745774
 30
0.0
  0
VERTEX
  8
0
 10
77.294021
 20
-75.993453
 30
0.0
 42
-0.41421356237315377
  0
VERTEX
  8
0
 10
77.679139
 20
-76.586482
 30
0.0
  0
VERTEX
  8
0
 10
74.848813
 20
-89.902122
 30
0.0
 42
-0.411946869449522
  0
VERTEX
  8
0
 10
74.259574
 20
-90.28803
 30
0.0
  0
SEQEND
  8
0
  0
POLYLINE
  8
0
 62
0
 70
1
 66
1
 10
0.0
 20
0.0
 30
0.0
  0
VERTEX
  8
0
 10
-14.630000000000003
 20
-69.7
 30
0.0
 42
-0.41421356237305135
  0
VERTEX
  8
0
 10
-14.13
 20
-69.2
 30
0.0
  0
VERTEX
  8
0
 10
-1.1300000000000003
 20
-69.2
 30
0.0
 42
-0.4142135623730963
  0
VERTEX
  8
0
 10
-0.6299999999999992
 20
-69.7
 30
0.0
  0
VERTEX
  8
0
 10
-0.6300000000000019
 20
-82.7
 30
0.0
 42
-0.4142135623731075
  0
VERTEX
  8
0
 10
-1.13
 20
-83.2
 30
0.0
  0
VERTEX
  8
0
 10
-14.129999999999999
 20
-83.2
 30
0.0
 42
-0.41421356237311274
  0
VERTEX
  8
0
 10
-14.630000000000003
 20
-82.7
 30
0.0
  0
SEQEND
  8
0
  0
POLYLINE
  8
0
 62
0
 70
1
 66
1
 10
0.0
 20
0.0
 30
0.0
  0
VERTEX
  8
0
 10
280.351968
 20
-43.716679
 30
0.0
  0
VERTEX
  8
0
 10
280.351074
 20
-30.099733
 30
0.0
 42
-0.4142327840178033
  0
VERTEX
  8
0
 10
280.851074
 20
-29.59969999999999
 30
0.0
  0
VERTEX
  8
0
 10
286.852064
 20
-29.5997
 30
0.0
 42
-0.41421356237316165
  0
VERTEX
  8
0
 10
287.352064
 20
-30.0997
 30
0.0
  0
VERTEX
  8
0
 10
287.352064
 20
-43.716647
 30
0.0
 42
-0.4142135623731117
  0
VERTEX
  8
0
 10
286.852064
 20
-44.21664700000001
 30
0.0
  0
VERTEX
  8
0
 10
280.851968
 20
-44.216646999999995
 30
0.0
 42
-0.41419434098964
  0
SEQEND
  8
0
  0
POLYLINE
  8
0
 62
0
 70
1
 66
1
 10
0.0
 20
0.0
 30
0.0
  0
VERTEX
  8
0
 10
256.973832
 20
-29.599700000000013
 30
0.0
  0
VERTEX
  8
0
 10
262.974834
 20
-29.599700000000006
 30
0.0
 42
-0.41421356237314916
  0
VERTEX
  8
0
 10
263.474834
 20
-30.0997
 30
0.0
  0
VERTEX
  8
0
 10
263.474834
 20
-43.712819
 30
0.0
 42
-0.4119468694495819
  0
VERTEX
  8
0
 10
262.978707
 20
-44.21280399999999
 30
0.0
  0
VERTEX
  8
0
 10
256.977705
 20
-44.25928400000001
 30
0.0
 42
-0.4164838941706377
  0
VERTEX
  8
0
 10
256.473832
 20
-43.759299
 30
0.0
  0
VERTEX
  8
0
 10
256.473832
 20
-30.0997
 30
0.0
 42
-0.4142135623731325
  0
SEQEND
  8
0
  0
POLYLINE
  8
0
 62
0
 70
1
 66
1
 10
0.0
 20
0.0
 30
0.0
  0
VERTEX
  8
0
 10
7.1
 20
-12.05
 30
0.0
 42
-0.4142135623730784
  0
VERTEX
  8
0
 10
7.6
 20
-12.55
 30
0.0
  0
VERTEX
  8
0
 10
7.6
 20
-25.55
 30
0.0
 42
-0.41421356237310336
  0
VERTEX
  8
0
 10
7.1
 20
-26.05
 30
0.0
  0
VERTEX
  8
0
 10
-5.9
 20
-26.05
 30
0.0
 42
-0.4142135623731242
  0
VERTEX
  8
0
 10
-6.4
 20
-25.55
 30
0.0
  0
VERTEX
  8
0
 10
-6.4
 20
-12.55
 30
0.0
 42
-0.4142135623730846
  0
VERTEX
  8
0
 10
-5.9
 20
-12.05
 30
0.0
  0
SEQEND
  8
0
  0
POLYLINE
  8
0
 62
0
 70
1
 66
1
 10
0.0
 20
0.0
 30
0.0
  0
VERTEX
  8
0
 10
100.649477
 20
-80.957808
 30
0.0
 42
-0.414213562373113
  0
VERTEX
  8
0
 10
101.034595
 20
-81.550838
 30
0.0
  0
VERTEX
  8
0
 10
98.203472
 20
-94.870221
 30
0.0
 42
-0.41421356237309503
  0
VERTEX
  8
0
 10
97.610443
 20
-95.255339
 30
0.0
  0
VERTEX
  8
0
 10
91.741463
 20
-94.007849
 30
0.0
 42
-0.4141943409896697
  0
VERTEX
  8
0
 10
91.356338
 20
-93.414851
 30
0.0
  0
VERTEX
  8
0
 10
94.186586
 20
-80.095282
 30
0.0
 42
-0.41423278401778363
  0
VERTEX
  8
0
 10
94.779623
 20
-79.710132
 30
0.0
  0
SEQEND
  8
0
  0
POLYLINE
  8
0
 62
0
 70
1
 66
1
 10
0.0
 20
0.0
 30
0.0
  0
VERTEX
  8
0
 10
5.416246
 20
-31.100102
 30
0.0
 42
-0.41421356237309037
  0
VERTEX
  8
0
 10
5.916245999999999
 20
-31.600102
 30
0.0
  0
VERTEX
  8
0
 10
5.916245999999999
 20
-44.600102
 30
0.0
 42
-0.4142135623731356
  0
VERTEX
  8
0
 10
5.416246
 20
-45.100102
 30
0.0
  0
VERTEX
  8
0
 10
-7.583754
 20
-45.100102
 30
0.0
 42
-0.41421356237307994
  0
VERTEX
  8
0
 10
-8.083754000000003
 20
-44.600102
 30
0.0
  0
VERTEX
  8
0
 10
-8.083753999999999
 20
-31.600102
 30
0.0
 42
-0.4142135623731486
  0
VERTEX
  8
0
 10
-7.583754
 20
-31.100102
 30
0.0
  0
SEQEND
  8
0
  0
POLYLINE
  8
0
 62
0
 70
1
 66
1
 10
0.0
 20
0.0
 30
0.0
  0
VERTEX
  8
0
 10
173.27717
 20
-92.553644
 30
0.0
 42
-0.4142135623730003
  0
VERTEX
  8
0
 10
172.892052
 20
-93.146674
 30
0.0
  0
VERTEX
  8
0
 10
160.176133
 20
-95.849526
 30
0.0
 42
-0.41421356237310325
  0
VERTEX
  8
0
 10
159.583104
 20
-95.464408
 30
0.0
  0
VERTEX
  8
0
 10
156.880252
 20
-82.748489
 30
0.0
 42
-0.4142135623731474
  0
VERTEX
  8
0
 10
157.26537
 20
-82.15546
 30
0.0
  0
VERTEX
  8
0
 10
169.981289
 20
-79.452608
 30
0.0
 42
-0.41421356237307877
  0
VERTEX
  8
0
 10
170.574318
 20
-79.837726
 30
0.0
  0
SEQEND
  8
0
  0
POLYLINE
  8
0
 62
0
 70
1
 66
1
 10
0.0
 20
0.0
 30
0.0
  0
VERTEX
  8
0
 10
76.45921
 20
-91.662287
 30
0.0
 42
-0.41421356237312934
  0
VERTEX
  8
0
 10
76.074093
 20
-91.069258
 30
0.0
  0
VERTEX
  8
0
 10
78.77694399999999
 20
-78.353339
 30
0.0
 42
-0.4142135623731015
  0
VERTEX
  8
0
 10
79.369974
 20
-77.968221
 30
0.0
  0
VERTEX
  8
0
 10
92.085893
 20
-80.671073
 30
0.0
 42
-0.41421356237315204
  0
VERTEX
  8
0
 10
92.471011
 20
-81.264102
 30
0.0
  0
VERTEX
  8
0
 10
89.768159
 20
-93.980021
 30
0.0
 42
-0.41421356237309503
  0
VERTEX
  8
0
 10
89.175129
 20
-94.365139
 30
0.0
  0
SEQEND
  8
0
  0
POLYLINE
  8
0
 62
0
 70
1
 66
1
 10
0.0
 20
0.0
 30
0.0
  0
VERTEX
  8
0
 10
-9.430874
 20
-65.65
 30
0.0
  0
VERTEX
  8
0
 10
-15.431864
 20
-65.65
 30
0.0
 42
-0.41421356237309814
  0
VERTEX
  8
0
 10
-15.931864000000001
 20
-65.15
 30
0.0
  0
VERTEX
  8
0
 10
-15.931864000000001
 20
-51.533053
 30
0.0
 42
-0.4142135623730742
  0
VERTEX
  8
0
 10
-15.431864
 20
-51.033053
 30
0.0
  0
VERTEX
  8
0
 10
-9.431768
 20
-51.033053
 30
0.0
 42
-0.41419434098965663
  0
VERTEX
  8
0
 10
-8.931767999999998
 20
-51.533021
 30
0.0
  0
VERTEX
  8
0
 10
-8.930874000000001
 20
-65.149967
 30
0.0
 42
-0.41423278401777414
  0
SEQEND
  8
0
  0
POLYLINE
  8
0
 62
0
 70
1
 66
1
 10
0.0
 20
0.0
 30
0.0
  0
VERTEX
  8
0
 10
157.607705
 20
-95.488752
 30
0.0
  0
VERTEX
  8
0
 10
151.747503
 20
-96.781895
 30
0.0
 42
-0.4164838941706743
  0
VERTEX
  8
0
 10
151.150688
 20
-96.397597
 30
0.0
  0
VERTEX
  8
0
 10
148.310698
 20
-83.036493
 30
0.0
 42
-0.41421356237301193
  0
VERTEX
  8
0
 10
148.695816
 20
-82.443464
 30
0.0
  0
VERTEX
  8
0
 10
154.565682
 20
-81.195785
 30
0.0
 42
-0.41421356237315377
  0
VERTEX
  8
0
 10
155.158711
 20
-81.580903
 30
0.0
  0
VERTEX
  8
0
 10
157.989038
 20
-94.896543
 30
0.0
 42
-0.411946869449563
  0
SEQEND
  8
0
  0
POLYLINE
  8
0
 62
0
 70
1
 66
1
 10
0.0
 20
0.0
 30
0.0
  0
VERTEX
  8
0
 10
-40.909649
 20
-26.020102
 30
0.0
  0
VERTEX
  8
0
 10
-27.909649
 20
-26.020102
 30
0.0
 42
-0.41421356237309503
  0
VERTEX
  8
0
 10
-27.409649
 20
-26.520102
 30
0.0
  0
VERTEX
  8
0
 10
-27.409649
 20
-39.520102
 30
0.0
 42
-0.4142135623731054
  0
VERTEX
  8
0
 10
-27.909649
 20
-40.020102
 30
0.0
  0
VERTEX
  8
0
 10
-40.909649
 20
-40.020102
 30
0.0
 42
-0.41421356237306173
  0
VERTEX
  8
0
 10
-41.409649
 20
-39.520102
 30
0.0
  0
VERTEX
  8
0
 10
-41.409649
 20
-26.520102
 30
0.0
 42
-0.4142135623730867
  0
SEQEND
  8
0
  0
POLYLINE
  8
0
 62
0
 70
1
 66
1
 10
0.0
 20
0.0
 30
0.0
  0
VERTEX
  8
0
 10
-30.328093
 20
-1.42
 30
0.0
  0
VERTEX
  8
0
 10
-30.328093
 20
11.58
 30
0.0
 42
-0.4142135623730919
  0
VERTEX
  8
0
 10
-29.828093
 20
12.080000000000002
 30
0.0
  0
VERTEX
  8
0
 10
-16.828093
 20
12.080000000000002
 30
0.0
 42
-0.41421356237308776
  0
VERTEX
  8
0
 10
-16.328093
 20
11.58
 30
0.0
  0
VERTEX
  8
0
 10
-16.328093
 20
-1.42
 30
0.0
 42
-0.41421356237308876
  0
VERTEX
  8
0
 10
-16.828093
 20
-1.920000000000001
 30
0.0
  0
VERTEX
  8
0
 10
-29.828093
 20
-1.9200000000000004
 30
0.0
 42
-0.41421356237309154
  0
SEQEND
  8
0
  0
POLYLINE
  8
0
 62
0
 70
1
 66
1
 10
0.0
 20
0.0
 30
0.0
  0
VERTEX
  8
0
 10
-34.299287
 20
-6.969999999999999
 30
0.0
  0
VERTEX
  8
0
 10
-21.299287
 20
-6.970000000000001
 30
0.0
 42
-0.41421356237308204
  0
VERTEX
  8
0
 10
-20.799287
 20
-7.47
 30
0.0
  0
VERTEX
  8
0
 10
-20.799287
 20
-20.47
 30
0.0
 42
-0.41421356237309503
  0
VERTEX
  8
0
 10
-21.299287
 20
-20.97
 30
0.0
  0
VERTEX
  8
0
 10
-34.299287
 20
-20.97
 30
0.0
 42
-0.4142135623731054
  0
VERTEX
  8
0
 10
-34.799287
 20
-20.47
 30
0.0
  0
VERTEX
  8
0
 10
-34.799287
 20
-7.469999999999999
 30
0.0
 42
-0.4142135623730805
  0
SEQEND
  8
0
  0
POLYLINE
  8
0
 62
0
 70
1
 66
1
 10
0.0
 20
0.0
 30
0.0
  0
VERTEX
  8
0
 10
119.411218
 20
-116.267766
 30
0.0
 42
-0.05067691942900729
  0
VERTEX
  8
0
 10
118.80776
 20
-116.206446
 30
0.0
  0
VERTEX
  8
0
 10
36.508914000000004
 20
-99.306382
 30
0.0
 42
0.05071852673753849
  0
VERTEX
  8
0
 10
35.904958
 20
-99.245062
 30
0.0
  0
VERTEX
  8
0
 10
-50.579485
 20
-99.255407
 30
0.0
 42
-0.4141832219341691
  0
VERTEX
  8
0
 10
-53.579983
 20
-96.256215
 30
0.0
  0
VERTEX
  8
0
 10
-53.611208
 20
19.565432
 30
0.0
 42
-0.4142925263675129
  0
VERTEX
  8
0
 10
-50.611208
 20
22.566241
 30
0.0
  0
VERTEX
  8
0
 10
321.65995
 20
22.566241000000005
 30
0.0
 42
-0.4142135623730739
  0
VERTEX
  8
0
 10
324.65995
 20
19.566241
 30
0.0
  0
VERTEX
  8
0
 10
324.65995
 20
-96.244566
 30
0.0
 42
-0.4141620084345825
  0
VERTEX
  8
0
 10
321.660478
 20
-99.244566
 30
0.0
  0
VERTEX
  8
0
 10
221.024241
 20
-99.26228
 30
0.0
 42
0.05076238424353738
  0
VERTEX
  8
0
 10
220.419792
 20
-99.323913
 30
0.0
  0
VERTEX
  8
0
 10
138.423005
 20
-116.206134
 30
0.0
 42
-0.050806502575742624
  0
VERTEX
  8
0
 10
137.818028
 20
-116.267766
 30
0.0
  0
SEQEND
  8
0
  0
POLYLINE
  8
0
 62
0
 70
1
 66
1
 10
0.0
 20
0.0
 30
0.0
  0
VERTEX
  8
0
 10
175.091191
 20
-91.776451
 30
0.0
 42
-0.4141943409896997
  0
VERTEX
  8
0
 10
174.498168
 20
-91.391365
 30
0.0
  0
VERTEX
  8
0
 10
171.666172
 20
-78.072168
 30
0.0
 42
-0.4142327840177341
  0
VERTEX
  8
0
 10
172.051283
 20
-77.479106
 30
0.0
  0
VERTEX
  8
0
 10
177.921137
 20
-76.23143
 30
0.0
 42
-0.4142135623730706
  0
VERTEX
  8
0
 10
178.514167
 20
-76.616548
 30
0.0
  0
VERTEX
  8
0
 10
181.34528899999998
 20
-89.935931
 30
0.0
 42
-0.4142135623731503
  0
VERTEX
  8
0
 10
180.960171
 20
-90.52896100000001
 30
0.0
  0
SEQEND
  8
0
  0
POLYLINE
  8
0
 62
0
 70
1
 66
1
 10
0.0
 20
0.0
 30
0.0
  0
VERTEX
  8
0
 10
36.96
 20
-50.15
 30
0.0
 42
-0.41421356237307005
  0
VERTEX
  8
0
 10
37.46
 20
-50.65
 30
0.0
  0
VERTEX
  8
0
 10
37.46
 20
-63.65
 30
0.0
 42
-0.41421356237311585
  0
VERTEX
  8
0
 10
36.96
 20
-64.15
 30
0.0
  0
VERTEX
  8
0
 10
23.96
 20
-64.15
 30
0.0
 42
-0.41421356237312
  0
VERTEX
  8
0
 10
23.46
 20
-63.65
 30
0.0
  0
VERTEX
  8
0
 10
23.46
 20
-50.65
 30
0.0
 42
-0.41421356237313667
  0
VERTEX
  8
0
 10
23.96
 20
-50.15
 30
0.0
  0
SEQEND
  8
0
  0
POLYLINE
  8
0
 62
0
 70
1
 66
1
 10
0.0
 20
0.0
 30
0.0
  0
VERTEX
  8
0
 10
18.11
 20
-31.6
 30
0.0
 42
-0.4142135623731075
  0
VERTEX
  8
0
 10
18.61
 20
-31.1
 30
0.0
  0
VERTEX
  8
0
 10
31.61
 20
-31.1
 30
0.0
 42
-0.4142135623731075
  0
VERTEX
  8
0
 10
32.11
 20
-31.6
 30
0.0
  0
VERTEX
  8
0
 10
32.11
 20
-44.6
 30
0.0
 42
-0.41421356237310336
  0
VERTEX
  8
0
 10
31.61
 20
-45.1
 30
0.0
  0
VERTEX
  8
0
 10
18.61
 20
-45.1
 30
0.0
 42
-0.41421356237310336
  0
VERTEX
  8
0
 10
18.11
 20
-44.6
 30
0.0
  0
SEQEND
  8
0
  0
POLYLINE
  8
0
 62
0
 70
1
 66
1
 10
0.0
 20
0.0
 30
0.0
  0
VERTEX
  8
0
 10
17.4125
 20
-12.55
 30
0.0
 42
-0.414213562373094
  0
VERTEX
  8
0
 10
17.9125
 20
-12.05
 30
0.0
  0
VERTEX
  8
0
 10
30.9125
 20
-12.05
 30
0.0
 42
-0.414213562373094
  0
VERTEX
  8
0
 10
31.4125
 20
-12.55
 30
0.0
  0
VERTEX
  8
0
 10
31.4125
 20
-25.55
 30
0.0
 42
-0.4142135623730929
  0
VERTEX
  8
0
 10
30.9125
 20
-26.049999999999997
 30
0.0
  0
VERTEX
  8
0
 10
17.9125
 20
-26.049999999999997
 30
0.0
 42
-0.4142135623730929
  0
VERTEX
  8
0
 10
17.4125
 20
-25.55
 30
0.0
  0
SEQEND
  8
0
  0
POLYLINE
  8
0
 62
0
 70
1
 66
1
 10
0.0
 20
0.0
 30
0.0
  0
VERTEX
  8
0
 10
7.0
 20
-6.5
 30
0.0
 42
-0.41421356237308876
  0
VERTEX
  8
0
 10
6.5
 20
-7.0
 30
0.0
  0
VERTEX
  8
0
 10
-6.5
 20
-7.0
 30
0.0
 42
-0.41421356237308876
  0
VERTEX
  8
0
 10
-7.0
 20
-6.5
 30
0.0
  0
VERTEX
  8
0
 10
-7.0
 20
6.5
 30
0.0
 42
-0.41421356237308876
  0
VERTEX
  8
0
 10
-6.5
 20
7.0
 30
0.0
  0
VERTEX
  8
0
 10
6.5
 20
7.0
 30
0.0
 42
-0.4142135623730846
  0
VERTEX
  8
0
 10
7.0
 20
6.5
 30
0.0
  0
SEQEND
  8
0
  0
POLYLINE
  8
0
 62
0
 70
1
 66
1
 10
0.0
 20
0.0
 30
0.0
  0
VERTEX
  8
0
 10
25.55
 20
-7.0
 30
0.0
  0
VERTEX
  8
0
 10
12.55
 20
-7.0
 30
0.0
 42
-0.41421356237309087
  0
VERTEX
  8
0
 10
12.05
 20
-6.5
 30
0.0
  0
VERTEX
  8
0
 10
12.05
 20
6.5
 30
0.0
 42
-0.41421356237309087
  0
VERTEX
  8
0
 10
12.55
 20
7.0
 30
0.0
  0
VERTEX
  8
0
 10
25.55
 20
7.0
 30
0.0
 42
-0.4142135623730919
  0
VERTEX
  8
0
 10
26.05
 20
6.5
 30
0.0
  0
VERTEX
  8
0
 10
26.05
 20
-6.5
 30
0.0
 42
-0.41421356237310336
  0
SEQEND
  8
0
  0
POLYLINE
  8
0
 62
0
 70
1
 66
1
 10
0.0
 20
0.0
 30
0.0
  0
VERTEX
  8
0
 10
45.1
 20
-4.999599999999999
 30
0.0
 42
-0.41421356237307055
  0
VERTEX
  8
0
 10
44.6
 20
-5.499600000000001
 30
0.0
  0
VERTEX
  8
0
 10
31.6
 20
-5.499600000000001
 30
0.0
 42
-0.41421356237306384
  0
VERTEX
  8
0
 10
31.1
 20
-4.9996
 30
0.0
  0
VERTEX
  8
0
 10
31.1
 20
8.000399999999999
 30
0.0
 42
-0.4142135623731023
  0
VERTEX
  8
0
 10
31.6
 20
8.5004
 30
0.0
  0
VERTEX
  8
0
 10
44.6
 20
8.500399999999999
 30
0.0
 42
-0.41421356237310125
  0
VERTEX
  8
0
 10
45.1
 20
8.0004
 30
0.0
  0
SEQEND
  8
0
  0
POLYLINE
  8
0
 62
0
 70
1
 66
1
 10
0.0
 20
0.0
 30
0.0
  0
VERTEX
  8
0
 10
292.693
 20
11.762499999999985
 30
0.0
  0
VERTEX
  8
0
 10
305.693
 20
11.762499999999992
 30
0.0
 42
-0.41421356237314705
  0
VERTEX
  8
0
 10
306.193
 20
11.2625
 30
0.0
  0
VERTEX
  8
0
 10
306.193
 20
-1.7375000000000003
 30
0.0
 42
-0.41421356237313117
  0
VERTEX
  8
0
 10
305.693
 20
-2.237499999999985
 30
0.0
  0
VERTEX
  8
0
 10
292.693
 20
-2.237499999999985
 30
0.0
 42
-0.41421356237313117
  0
VERTEX
  8
0
 10
292.193
 20
-1.7375
 30
0.0
  0
VERTEX
  8
0
 10
292.193
 20
11.2625
 30
0.0
 42
-0.4142135623731304
  0
SEQEND
  8
0
  0
POLYLINE
  8
0
 62
0
 70
1
 66
1
 10
0.0
 20
0.0
 30
0.0
  0
VERTEX
  8
0
 10
310.365
 20
-20.7875
 30
0.0
 42
-0.4142135623731325
  0
VERTEX
  8
0
 10
309.865
 20
-21.287499999999987
 30
0.0
  0
VERTEX
  8
0
 10
296.865
 20
-21.28749999999999
 30
0.0
 42
-0.41421356237314083
  0
VERTEX
  8
0
 10
296.365
 20
-20.7875
 30
0.0
  0
VERTEX
  8
0
 10
296.365
 20
-7.7875
 30
0.0
 42
-0.41421356237314083
  0
VERTEX
  8
0
 10
296.865
 20
-7.28750000000001
 30
0.0
  0
VERTEX
  8
0
 10
309.865
 20
-7.287500000000015
 30
0.0
 42
-0.41421356237313095
  0
VERTEX
  8
0
 10
310.365
 20
-7.7875
 30
0.0
  0
SEQEND
  8
0
  0
POLYLINE
  8
0
 62
0
 70
1
 66
1
 10
0.0
 20
0.0
 30
0.0
  0
VERTEX
  8
0
 10
300.635
 20
-87.463
 30
0.0
  0
VERTEX
  8
0
 10
300.635
 20
-74.463
 30
0.0
 42
-0.4142135623730867
  0
VERTEX
  8
0
 10
301.135
 20
-73.963
 30
0.0
  0
VERTEX
  8
0
 10
314.135
 20
-73.963
 30
0.0
 42
-0.4142135623730867
  0
VERTEX
  8
0
 10
314.635
 20
-74.463
 30
0.0
  0
VERTEX
  8
0
 10
314.635
 20
-87.463
 30
0.0
 42
-0.41421356237313667
  0
VERTEX
  8
0
 10
314.135
 20
-87.96299999999998
 30
0.0
  0
VERTEX
  8
0
 10
301.135
 20
-87.96299999999998
 30
0.0
 42
-0.41421356237313667
  0
SEQEND
  8
0
  0
POLYLINE
  8
0
 62
0
 70
1
 66
1
 10
0.0
 20
0.0
 30
0.0
  0
VERTEX
  8
0
 10
224.435
 20
-63.65
 30
0.0
  0
VERTEX
  8
0
 10
224.435
 20
-50.65
 30
0.0
 42
-0.41421356237312834
  0
VERTEX
  8
0
 10
224.935
 20
-50.15
 30
0.0
  0
VERTEX
  8
0
 10
237.935
 20
-50.14999999999999
 30
0.0
 42
-0.4142135623730992
  0
VERTEX
  8
0
 10
238.435
 20
-50.65
 30
0.0
  0
VERTEX
  8
0
 10
238.435
 20
-63.65
 30
0.0
 42
-0.4142135623731075
  0
VERTEX
  8
0
 10
237.935
 20
-64.15
 30
0.0
  0
VERTEX
  8
0
 10
224.935
 20
-64.15
 30
0.0
 42
-0.4142135623731075
  0
SEQEND
  8
0
  0
POLYLINE
  8
0
 62
0
 70
1
 66
1
 10
0.0
 20
0.0
 30
0.0
  0
VERTEX
  8
0
 10
257.47
 20
-26.04999999999999
 30
0.0
  0
VERTEX
  8
0
 10
244.47
 20
-26.050000000000004
 30
0.0
 42
-0.4142135623731325
  0
VERTEX
  8
0
 10
243.97
 20
-25.55
 30
0.0
  0
VERTEX
  8
0
 10
243.97
 20
-12.55
 30
0.0
 42
-0.4142135623731304
  0
VERTEX
  8
0
 10
244.47
 20
-12.05
 30
0.0
  0
VERTEX
  8
0
 10
257.47
 20
-12.050000000000011
 30
0.0
 42
-0.41421356237314083
  0
VERTEX
  8
0
 10
257.97
 20
-12.55
 30
0.0
  0
VERTEX
  8
0
 10
257.97
 20
-25.55
 30
0.0
 42
-0.41421356237314083
  0
SEQEND
  8
0
  0
POLYLINE
  8
0
 62
0
 70
1
 66
1
 10
0.0
 20
0.0
 30
0.0
  0
VERTEX
  8
0
 10
314.635
 20
-26.8375
 30
0.0
  0
VERTEX
  8
0
 10
314.635
 20
-39.8375
 30
0.0
 42
-0.414213562373145
  0
VERTEX
  8
0
 10
314.135
 20
-40.33749999999999
 30
0.0
  0
VERTEX
  8
0
 10
301.135
 20
-40.337499999999984
 30
0.0
 42
-0.4142135623731325
  0
VERTEX
  8
0
 10
300.635
 20
-39.8375
 30
0.0
  0
VERTEX
  8
0
 10
300.635
 20
-26.8375
 30
0.0
 42
-0.4142135623731512
  0
VERTEX
  8
0
 10
301.135
 20
-26.337500000000006
 30
0.0
  0
VERTEX
  8
0
 10
314.135
 20
-26.33750000000001
 30
0.0
 42
-0.41421356237314083
  0
SEQEND
  8
0
  0
POLYLINE
  8
0
 62
0
 70
1
 66
1
 10
0.0
 20
0.0
 30
0.0
  0
VERTEX
  8
0
 10
247.46
 20
-45.10000000000001
 30
0.0
  0
VERTEX
  8
0
 10
234.46
 20
-45.1
 30
0.0
 42
-0.41421356237309087
  0
VERTEX
  8
0
 10
233.96
 20
-44.6
 30
0.0
  0
VERTEX
  8
0
 10
233.96
 20
-31.6
 30
0.0
 42
-0.4142135623730992
  0
VERTEX
  8
0
 10
234.46
 20
-31.1
 30
0.0
  0
VERTEX
  8
0
 10
247.46
 20
-31.1
 30
0.0
 42
-0.41421356237319495
  0
VERTEX
  8
0
 10
247.96
 20
-31.6
 30
0.0
  0
VERTEX
  8
0
 10
247.96
 20
-44.6
 30
0.0
 42
-0.4142135623731325
  0
SEQEND
  8
0
  0
POLYLINE
  8
0
 62
0
 70
1
 66
1
 10
0.0
 20
0.0
 30
0.0
  0
VERTEX
  8
0
 10
295.585
 20
-68.4125
 30
0.0
 42
-0.4142135623731117
  0
VERTEX
  8
0
 10
295.085
 20
-68.9125
 30
0.0
  0
VERTEX
  8
0
 10
282.085
 20
-68.9125
 30
0.0
 42
-0.4142135623731117
  0
VERTEX
  8
0
 10
281.585
 20
-68.4125
 30
0.0
  0
VERTEX
  8
0
 10
281.585
 20
-55.4125
 30
0.0
 42
-0.4142135623730992
  0
VERTEX
  8
0
 10
282.085
 20
-54.912499999999994
 30
0.0
  0
VERTEX
  8
0
 10
295.085
 20
-54.912499999999994
 30
0.0
 42
-0.4142135623730992
  0
VERTEX
  8
0
 10
295.585
 20
-55.4125
 30
0.0
  0
SEQEND
  8
0
  0
POLYLINE
  8
0
 62
0
 70
1
 66
1
 10
0.0
 20
0.0
 30
0.0
  0
VERTEX
  8
0
 10
228.91
 20
-44.7089
 30
0.0
 42
-0.4142135623730992
  0
VERTEX
  8
0
 10
228.41
 20
-45.2089
 30
0.0
  0
VERTEX
  8
0
 10
215.41
 20
-45.2089
 30
0.0
 42
-0.4142135623730992
  0
VERTEX
  8
0
 10
214.91
 20
-44.7089
 30
0.0
  0
VERTEX
  8
0
 10
214.91
 20
-31.7089
 30
0.0
 42
-0.4142135623730929
  0
VERTEX
  8
0
 10
215.41
 20
-31.2089
 30
0.0
  0
VERTEX
  8
0
 10
228.41
 20
-31.2089
 30
0.0
 42
-0.4142135623731325
  0
VERTEX
  8
0
 10
228.91
 20
-31.7089
 30
0.0
  0
SEQEND
  8
0
  0
POLYLINE
  8
0
 62
0
 70
1
 66
1
 10
0.0
 20
0.0
 30
0.0
  0
VERTEX
  8
0
 10
295.585
 20
-74.463
 30
0.0
  0
VERTEX
  8
0
 10
295.585
 20
-87.463
 30
0.0
 42
-0.4142135623731117
  0
VERTEX
  8
0
 10
295.085
 20
-87.963
 30
0.0
  0
VERTEX
  8
0
 10
282.085
 20
-87.963
 30
0.0
 42
-0.41421356237310336
  0
VERTEX
  8
0
 10
281.585
 20
-87.463
 30
0.0
  0
VERTEX
  8
0
 10
281.585
 20
-74.463
 30
0.0
 42
-0.4142135623731117
  0
VERTEX
  8
0
 10
282.085
 20
-73.963
 30
0.0
  0
VERTEX
  8
0
 10
295.085
 20
-73.963
 30
0.0
 42
-0.41421356237310336
  0
SEQEND
  8
0
  0
POLYLINE
  8
0
 62
0
 70
1
 66
1
 10
0.0
 20
0.0
 30
0.0
  0
VERTEX
  8
0
 10
262.535
 20
-87.463
 30
0.0
  0
VERTEX
  8
0
 10
262.535
 20
-74.463
 30
0.0
 42
-0.4142135623731117
  0
VERTEX
  8
0
 10
263.035
 20
-73.963
 30
0.0
  0
VERTEX
  8
0
 10
276.035
 20
-73.96299999999998
 30
0.0
 42
-0.4142135623730534
  0
VERTEX
  8
0
 10
276.535
 20
-74.463
 30
0.0
  0
VERTEX
  8
0
 10
276.535
 20
-87.463
 30
0.0
 42
-0.4142135623731117
  0
VERTEX
  8
0
 10
276.035
 20
-87.963
 30
0.0
  0
VERTEX
  8
0
 10
263.035
 20
-87.963
 30
0.0
 42
-0.4142135623731117
  0
SEQEND
  8
0
  0
POLYLINE
  8
0
 62
0
 70
1
 66
1
 10
0.0
 20
0.0
 30
0.0
  0
VERTEX
  8
0
 10
238.42
 20
-12.05
 30
0.0
 42
-0.4142135623730971
  0
VERTEX
  8
0
 10
238.92
 20
-12.55
 30
0.0
  0
VERTEX
  8
0
 10
238.92
 20
-25.55
 30
0.0
 42
-0.4142135623730971
  0
VERTEX
  8
0
 10
238.42
 20
-26.050000000000004
 30
0.0
  0
VERTEX
  8
0
 10
225.42
 20
-26.049999999999997
 30
0.0
 42
-0.41421356237312207
  0
VERTEX
  8
0
 10
224.92
 20
-25.55
 30
0.0
  0
VERTEX
  8
0
 10
224.92
 20
-12.55
 30
0.0
 42
-0.4142135623731242
  0
VERTEX
  8
0
 10
225.42
 20
-12.050000000000002
 30
0.0
  0
SEQEND
  8
0
  0
POLYLINE
  8
0
 62
0
 70
1
 66
1
 10
0.0
 20
0.0
 30
0.0
  0
VERTEX
  8
0
 10
106.309168
 20
-39.069377
 30
0.0
 42
-0.41421356237312207
  0
VERTEX
  8
0
 10
105.716139
 20
-39.45449500000001
 30
0.0
  0
VERTEX
  8
0
 10
93.00022
 20
-36.751643
 30
0.0
 42
-0.41421356237309503
  0
VERTEX
  8
0
 10
92.615102
 20
-36.158613
 30
0.0
  0
VERTEX
  8
0
 10
95.317954
 20
-23.442694
 30
0.0
 42
-0.41421356237310974
  0
VERTEX
  8
0
 10
95.910984
 20
-23.057576
 30
0.0
  0
VERTEX
  8
0
 10
108.626902
 20
-25.760428000000005
 30
0.0
 42
-0.4142135623730935
  0
VERTEX
  8
0
 10
109.01202
 20
-26.353458
 30
0.0
  0
SEQEND
  8
0
  0
POLYLINE
  8
0
 62
0
 70
1
 66
1
 10
0.0
 20
0.0
 30
0.0
  0
VERTEX
  8
0
 10
53.423393
 20
-33.502173
 30
0.0
 42
-0.4142135623730689
  0
VERTEX
  8
0
 10
53.808511
 20
-34.095202
 30
0.0
  0
VERTEX
  8
0
 10
51.105659
 20
-46.811121
 30
0.0
 42
-0.41421356237308693
  0
VERTEX
  8
0
 10
50.512629
 20
-47.196239
 30
0.0
  0
VERTEX
  8
0
 10
37.79671
 20
-44.493387
 30
0.0
 42
-0.41421356237307877
  0
VERTEX
  8
0
 10
37.411593
 20
-43.900358
 30
0.0
  0
VERTEX
  8
0
 10
40.114444
 20
-31.184439
 30
0.0
 42
-0.4142135623730775
  0
VERTEX
  8
0
 10
40.707474
 20
-30.799321
 30
0.0
  0
SEQEND
  8
0
  0
POLYLINE
  8
0
 62
0
 70
1
 66
1
 10
0.0
 20
0.0
 30
0.0
  0
VERTEX
  8
0
 10
230.78
 20
7.000000000000002
 30
0.0
  0
VERTEX
  8
0
 10
243.78
 20
6.999999999999993
 30
0.0
 42
-0.41421356237301493
  0
VERTEX
  8
0
 10
244.28
 20
6.5
 30
0.0
  0
VERTEX
  8
0
 10
244.28
 20
-6.5
 30
0.0
 42
-0.4142135623730872
  0
VERTEX
  8
0
 10
243.78
 20
-6.9999999999999964
 30
0.0
  0
VERTEX
  8
0
 10
230.78
 20
-7.000000000000002
 30
0.0
 42
-0.41421356237309764
  0
VERTEX
  8
0
 10
230.28
 20
-6.5
 30
0.0
  0
VERTEX
  8
0
 10
230.28
 20
6.5
 30
0.0
 42
-0.41421356237309764
  0
SEQEND
  8
0
  0
POLYLINE
  8
0
 62
0
 70
1
 66
1
 10
0.0
 20
0.0
 30
0.0
  0
VERTEX
  8
0
 10
225.23
 20
-4.999599999999999
 30
0.0
 42
-0.4142135623730924
  0
VERTEX
  8
0
 10
224.73
 20
-5.499599999999999
 30
0.0
  0
VERTEX
  8
0
 10
211.73
 20
-5.499600000000001
 30
0.0
 42
-0.414213562373197
  0
VERTEX
  8
0
 10
211.23
 20
-4.9996
 30
0.0
  0
VERTEX
  8
0
 10
211.23
 20
8.000399999999999
 30
0.0
 42
-0.4142135623730971
  0
VERTEX
  8
0
 10
211.73
 20
8.500400000000003
 30
0.0
  0
VERTEX
  8
0
 10
224.73
 20
8.500400000000003
 30
0.0
 42
-0.4142135623730971
  0
VERTEX
  8
0
 10
225.23
 20
8.0004
 30
0.0
  0
SEQEND
  8
0
  0
POLYLINE
  8
0
 62
0
 70
1
 66
1
 10
0.0
 20
0.0
 30
0.0
  0
VERTEX
  8
0
 10
93.313093
 20
-55.782558
 30
0.0
  0
VERTEX
  8
0
 10
96.015944
 20
-43.066639
 30
0.0
 42
-0.4142135623731163
  0
VERTEX
  8
0
 10
96.608974
 20
-42.681521
 30
0.0
  0
VERTEX
  8
0
 10
109.324893
 20
-45.384373
 30
0.0
 42
-0.4142135623731
  0
VERTEX
  8
0
 10
109.710011
 20
-45.977402
 30
0.0
  0
VERTEX
  8
0
 10
107.007159
 20
-58.693321
 30
0.0
 42
-0.4142135623731049
  0
VERTEX
  8
0
 10
106.414129
 20
-59.078439
 30
0.0
  0
VERTEX
  8
0
 10
93.69821
 20
-56.375587
 30
0.0
 42
-0.4142135623730395
  0
SEQEND
  8
0
  0
POLYLINE
  8
0
 62
0
 70
1
 66
1
 10
0.0
 20
0.0
 30
0.0
  0
VERTEX
  8
0
 10
108.595944
 20
-6.789339
 30
0.0
 42
-0.4142135623730976
  0
VERTEX
  8
0
 10
109.188974
 20
-6.404220999999998
 30
0.0
  0
VERTEX
  8
0
 10
121.904893
 20
-9.107073
 30
0.0
 42
-0.41421356237309404
  0
VERTEX
  8
0
 10
122.290011
 20
-9.700102
 30
0.0
  0
VERTEX
  8
0
 10
119.587159
 20
-22.416021
 30
0.0
 42
-0.4142135623731211
  0
VERTEX
  8
0
 10
118.994129
 20
-22.801138999999996
 30
0.0
  0
VERTEX
  8
0
 10
106.27821
 20
-20.098287
 30
0.0
 42
-0.4142135623730652
  0
VERTEX
  8
0
 10
105.893093
 20
-19.505258
 30
0.0
  0
SEQEND
  8
0
  0
POLYLINE
  8
0
 62
0
 70
1
 66
1
 10
0.0
 20
0.0
 30
0.0
  0
VERTEX
  8
0
 10
77.276974
 20
-19.096921
 30
0.0
  0
VERTEX
  8
0
 10
89.992893
 20
-21.799773000000002
 30
0.0
 42
-0.4142135623730935
  0
VERTEX
  8
0
 10
90.378011
 20
-22.392802
 30
0.0
  0
VERTEX
  8
0
 10
87.675159
 20
-35.108721
 30
0.0
 42
-0.4142135623731448
  0
VERTEX
  8
0
 10
87.082129
 20
-35.493838999999994
 30
0.0
  0
VERTEX
  8
0
 10
74.36621
 20
-32.790987
 30
0.0
 42
-0.4142135623730837
  0
VERTEX
  8
0
 10
73.981093
 20
-32.197958
 30
0.0
  0
VERTEX
  8
0
 10
76.683944
 20
-19.482039
 30
0.0
 42
-0.4142135623730955
  0
SEQEND
  8
0
  0
POLYLINE
  8
0
 62
0
 70
1
 66
1
 10
0.0
 20
0.0
 30
0.0
  0
VERTEX
  8
0
 10
82.319159
 20
-14.494621
 30
0.0
 42
-0.41421356237312085
  0
VERTEX
  8
0
 10
81.726129
 20
-14.879738999999997
 30
0.0
  0
VERTEX
  8
0
 10
69.01021
 20
-12.176887
 30
0.0
 42
-0.4142135623730322
  0
VERTEX
  8
0
 10
68.625093
 20
-11.583858
 30
0.0
  0
VERTEX
  8
0
 10
71.327944
 20
1.1320609999999993
 30
0.0
 42
-0.41421356237308393
  0
VERTEX
  8
0
 10
71.920974
 20
1.5171790000000045
 30
0.0
  0
VERTEX
  8
0
 10
84.636893
 20
-1.1856729999999989
 30
0.0
 42
-0.4142135623730958
  0
VERTEX
  8
0
 10
85.022011
 20
-1.778702
 30
0.0
  0
SEQEND
  8
0
  0
POLYLINE
  8
0
 62
0
 70
1
 66
1
 10
0.0
 20
0.0
 30
0.0
  0
VERTEX
  8
0
 10
262.83
 20
-7.000000000000002
 30
0.0
  0
VERTEX
  8
0
 10
249.83
 20
-7.000000000000002
 30
0.0
 42
-0.41421356237309764
  0
VERTEX
  8
0
 10
249.33
 20
-6.5
 30
0.0
  0
VERTEX
  8
0
 10
249.33
 20
6.5
 30
0.0
 42
-0.41421356237309764
  0
VERTEX
  8
0
 10
249.83
 20
7.000000000000002
 30
0.0
  0
VERTEX
  8
0
 10
262.83
 20
7.000000000000002
 30
0.0
 42
-0.41421356237309764
  0
VERTEX
  8
0
 10
263.33
 20
6.5
 30
0.0
  0
VERTEX
  8
0
 10
263.33
 20
-6.5
 30
0.0
 42
-0.41421356237309764
  0
SEQEND
  8
0
  0
POLYLINE
  8
0
 62
0
 70
1
 66
1
 10
0.0
 20
0.0
 30
0.0
  0
VERTEX
  8
0
 10
52.725793
 20
-13.878273
 30
0.0
 42
-0.41421356237309076
  0
VERTEX
  8
0
 10
53.110911
 20
-14.471302
 30
0.0
  0
VERTEX
  8
0
 10
50.408059
 20
-27.187221
 30
0.0
 42
-0.4142135623730836
  0
VERTEX
  8
0
 10
49.815029
 20
-27.572339
 30
0.0
  0
VERTEX
  8
0
 10
37.09911
 20
-24.869487
 30
0.0
 42
-0.4142135623731102
  0
VERTEX
  8
0
 10
36.713993
 20
-24.276458
 30
0.0
  0
VERTEX
  8
0
 10
39.416844
 20
-11.560539
 30
0.0
 42
-0.4142135623731067
  0
VERTEX
  8
0
 10
40.009874
 20
-11.175421
 30
0.0
  0
SEQEND
  8
0
  0
POLYLINE
  8
0
 62
0
 70
1
 66
1
 10
0.0
 20
0.0
 30
0.0
  0
VERTEX
  8
0
 10
58.643974
 20
-15.136221
 30
0.0
  0
VERTEX
  8
0
 10
71.359893
 20
-17.839073
 30
0.0
 42
-0.4142135623730935
  0
VERTEX
  8
0
 10
71.745011
 20
-18.432102
 30
0.0
  0
VERTEX
  8
0
 10
69.042159
 20
-31.148021
 30
0.0
 42
-0.4142135623730984
  0
VERTEX
  8
0
 10
68.449129
 20
-31.533139
 30
0.0
  0
VERTEX
  8
0
 10
55.73321
 20
-28.830287
 30
0.0
 42
-0.4142135623731248
  0
VERTEX
  8
0
 10
55.348093
 20
-28.237258
 30
0.0
  0
VERTEX
  8
0
 10
58.050944
 20
-15.521339
 30
0.0
 42
-0.41421356237312157
  0
SEQEND
  8
0
  0
POLYLINE
  8
0
 62
0
 70
1
 66
1
 10
0.0
 20
0.0
 30
0.0
  0
VERTEX
  8
0
 10
63.092629
 20
-10.919039000000001
 30
0.0
  0
VERTEX
  8
0
 10
50.37671
 20
-8.216187
 30
0.0
 42
-0.414213562373105
  0
VERTEX
  8
0
 10
49.991593
 20
-7.623158
 30
0.0
  0
VERTEX
  8
0
 10
52.694444
 20
5.092760999999999
 30
0.0
 42
-0.4142135623731186
  0
VERTEX
  8
0
 10
53.287474
 20
5.477879
 30
0.0
  0
VERTEX
  8
0
 10
66.003393
 20
2.775027000000002
 30
0.0
 42
-0.4142135623730614
  0
VERTEX
  8
0
 10
66.388511
 20
2.181998
 30
0.0
  0
VERTEX
  8
0
 10
63.685659
 20
-10.533921
 30
0.0
 42
-0.4142135623730814
  0
SEQEND
  8
0
  0
POLYLINE
  8
0
 62
0
 70
1
 66
1
 10
0.0
 20
0.0
 30
0.0
  0
VERTEX
  8
0
 10
101.371944
 20
-63.680739
 30
0.0
 42
-0.41421356237311135
  0
VERTEX
  8
0
 10
101.964974
 20
-63.295621
 30
0.0
  0
VERTEX
  8
0
 10
114.680893
 20
-65.99847299999999
 30
0.0
 42
-0.4142135623731015
  0
VERTEX
  8
0
 10
115.066011
 20
-66.591502
 30
0.0
  0
VERTEX
  8
0
 10
112.363159
 20
-79.307421
 30
0.0
 42
-0.414213562373113
  0
VERTEX
  8
0
 10
111.770129
 20
-79.692539
 30
0.0
  0
VERTEX
  8
0
 10
99.05421
 20
-76.989687
 30
0.0
 42
-0.4142135623731654
  0
VERTEX
  8
0
 10
98.669093
 20
-76.396658
 30
0.0
  0
SEQEND
  8
0
  0
POLYLINE
  8
0
 62
0
 70
1
 66
1
 10
0.0
 20
0.0
 30
0.0
  0
VERTEX
  8
0
 10
120.036893
 20
-86.612073
 30
0.0
 42
-0.4142135623731619
  0
VERTEX
  8
0
 10
120.422011
 20
-87.205102
 30
0.0
  0
VERTEX
  8
0
 10
117.71915900000002
 20
-99.921021
 30
0.0
 42
-0.4142135623731015
  0
VERTEX
  8
0
 10
117.126129
 20
-100.306139
 30
0.0
  0
VERTEX
  8
0
 10
104.41021
 20
-97.603287
 30
0.0
 42
-0.4142135623731049
  0
VERTEX
  8
0
 10
104.025093
 20
-97.010258
 30
0.0
  0
VERTEX
  8
0
 10
106.727944
 20
-84.294339
 30
0.0
 42
-0.41421356237309503
  0
VERTEX
  8
0
 10
107.320974
 20
-83.909221
 30
0.0
  0
SEQEND
  8
0
  0
POLYLINE
  8
0
 62
0
 70
1
 66
1
 10
0.0
 20
0.0
 30
0.0
  0
VERTEX
  8
0
 10
268.38
 20
6.5
 30
0.0
 42
-0.41421356237313095
  0
VERTEX
  8
0
 10
268.88
 20
6.999999999999985
 30
0.0
  0
VERTEX
  8
0
 10
281.88
 20
6.999999999999989
 30
0.0
 42
-0.41421356237314083
  0
VERTEX
  8
0
 10
282.38
 20
6.5
 30
0.0
  0
VERTEX
  8
0
 10
282.38
 20
-6.5
 30
0.0
 42
-0.41421356237314083
  0
VERTEX
  8
0
 10
281.88
 20
-6.999999999999989
 30
0.0
  0
VERTEX
  8
0
 10
268.88
 20
-6.999999999999985
 30
0.0
 42
-0.41421356237313095
  0
VERTEX
  8
0
 10
268.38
 20
-6.5
 30
0.0
  0
SEQEND
  8
0
  0
POLYLINE
  8
0
 62
0
 70
1
 66
1
 10
0.0
 20
0.0
 30
0.0
  0
VERTEX
  8
0
 10
59.341005
 20
-34.759875
 30
0.0
  0
VERTEX
  8
0
 10
72.056924
 20
-37.462727
 30
0.0
 42
-0.4142135623731474
  0
VERTEX
  8
0
 10
72.442042
 20
-38.055756
 30
0.0
  0
VERTEX
  8
0
 10
69.73919
 20
-50.771675
 30
0.0
 42
-0.4142135623731122
  0
VERTEX
  8
0
 10
69.14616
 20
-51.156793
 30
0.0
  0
VERTEX
  8
0
 10
56.430242
 20
-48.453941
 30
0.0
 42
-0.4142135623731122
  0
VERTEX
  8
0
 10
56.045124
 20
-47.860911
 30
0.0
  0
VERTEX
  8
0
 10
58.747976
 20
-35.144993
 30
0.0
 42
-0.4142135623731122
  0
SEQEND
  8
0
  0
POLYLINE
  8
0
 62
0
 70
1
 66
1
 10
0.0
 20
0.0
 30
0.0
  0
VERTEX
  8
0
 10
43.15281
 20
-65.10748700000002
 30
0.0
 42
-0.41421356237311857
  0
VERTEX
  8
0
 10
42.76769300000001
 20
-64.514458
 30
0.0
  0
VERTEX
  8
0
 10
45.470544
 20
-51.798539
 30
0.0
 42
-0.41421356237310325
  0
VERTEX
  8
0
 10
46.063574
 20
-51.413421
 30
0.0
  0
VERTEX
  8
0
 10
58.779493
 20
-54.116273
 30
0.0
 42
-0.41421356237312845
  0
VERTEX
  8
0
 10
59.164611
 20
-54.709302
 30
0.0
  0
VERTEX
  8
0
 10
56.461759
 20
-67.425221
 30
0.0
 42
-0.41421356237309503
  0
VERTEX
  8
0
 10
55.868729
 20
-67.810339
 30
0.0
  0
SEQEND
  8
0
  0
POLYLINE
  8
0
 62
0
 70
1
 66
1
 10
0.0
 20
0.0
 30
0.0
  0
VERTEX
  8
0
 10
75.095159
 20
-71.385921
 30
0.0
 42
-0.41421356237309503
  0
VERTEX
  8
0
 10
74.502129
 20
-71.771039
 30
0.0
  0
VERTEX
  8
0
 10
61.78621
 20
-69.068187
 30
0.0
 42
-0.4142135623731081
  0
VERTEX
  8
0
 10
61.401093
 20
-68.475158
 30
0.0
  0
VERTEX
  8
0
 10
64.103944
 20
-55.759239
 30
0.0
 42
-0.41421356237309737
  0
VERTEX
  8
0
 10
64.696974
 20
-55.374121
 30
0.0
  0
VERTEX
  8
0
 10
77.412893
 20
-58.07697300000001
 30
0.0
 42
-0.41421356237311713
  0
VERTEX
  8
0
 10
77.798011
 20
-58.670002
 30
0.0
  0
SEQEND
  8
0
  0
POLYLINE
  8
0
 62
0
 70
1
 66
1
 10
0.0
 20
0.0
 30
0.0
  0
VERTEX
  8
0
 10
74.679093
 20
-51.821858
 30
0.0
  0
VERTEX
  8
0
 10
77.381944
 20
-39.105939
 30
0.0
 42
-0.414213562373127
  0
VERTEX
  8
0
 10
77.974974
 20
-38.720821
 30
0.0
  0
VERTEX
  8
0
 10
90.690893
 20
-41.423673
 30
0.0
 42
-0.41421356237306073
  0
VERTEX
  8
0
 10
91.076011
 20
-42.016702
 30
0.0
  0
VERTEX
  8
0
 10
88.373159
 20
-54.732621
 30
0.0
 42
-0.41421356237309737
  0
VERTEX
  8
0
 10
87.780129
 20
-55.117739
 30
0.0
  0
VERTEX
  8
0
 10
75.06421
 20
-52.414887
 30
0.0
 42
-0.4142135623731081
  0
SEQEND
  8
0
  0
POLYLINE
  8
0
 62
0
 70
1
 66
1
 10
0.0
 20
0.0
 30
0.0
  0
VERTEX
  8
0
 10
165.785339
 20
-2.442652999999998
 30
0.0
 42
-0.4142135623730761
  0
VERTEX
  8
0
 10
166.378369
 20
-2.8277710000000003
 30
0.0
  0
VERTEX
  8
0
 10
169.08122
 20
-15.54369
 30
0.0
 42
-0.41421356237308415
  0
VERTEX
  8
0
 10
168.696103
 20
-16.136719000000003
 30
0.0
  0
VERTEX
  8
0
 10
155.980184
 20
-18.839571
 30
0.0
 42
-0.4142135623730697
  0
VERTEX
  8
0
 10
155.387154
 20
-18.454453
 30
0.0
  0
VERTEX
  8
0
 10
152.684302
 20
-5.738534
 30
0.0
 42
-0.41421356237310547
  0
VERTEX
  8
0
 10
153.06942
 20
-5.145505000000002
 30
0.0
  0
SEQEND
  8
0
  0
POLYLINE
  8
0
 62
0
 70
1
 66
1
 10
0.0
 20
0.0
 30
0.0
  0
VERTEX
  8
0
 10
80.420249
 20
-73.028706
 30
0.0
 42
-0.414213562373113
  0
VERTEX
  8
0
 10
80.035131
 20
-72.435677
 30
0.0
  0
VERTEX
  8
0
 10
82.737983
 20
-59.719758
 30
0.0
 42
-0.4142135623731122
  0
VERTEX
  8
0
 10
83.331013
 20
-59.33464
 30
0.0
  0
VERTEX
  8
0
 10
96.046931
 20
-62.037492
 30
0.0
 42
-0.41421356237309503
  0
VERTEX
  8
0
 10
96.432049
 20
-62.630522
 30
0.0
  0
VERTEX
  8
0
 10
93.729197
 20
-75.346441
 30
0.0
 42
-0.4142135623731049
  0
VERTEX
  8
0
 10
93.136168
 20
-75.731558
 30
0.0
  0
SEQEND
  8
0
  0
POLYLINE
  8
0
 62
0
 70
1
 66
1
 10
0.0
 20
0.0
 30
0.0
  0
VERTEX
  8
0
 10
134.43542
 20
-9.106304999999999
 30
0.0
  0
VERTEX
  8
0
 10
147.151339
 20
-6.403453000000001
 30
0.0
 42
-0.4142135623731526
  0
VERTEX
  8
0
 10
147.744369
 20
-6.788571
 30
0.0
  0
VERTEX
  8
0
 10
150.44722
 20
-19.50449
 30
0.0
 42
-0.4142135623730391
  0
VERTEX
  8
0
 10
150.062103
 20
-20.097519
 30
0.0
  0
VERTEX
  8
0
 10
137.346184
 20
-22.800371
 30
0.0
 42
-0.41421356237307716
  0
VERTEX
  8
0
 10
136.753154
 20
-22.415253
 30
0.0
  0
VERTEX
  8
0
 10
134.050302
 20
-9.699334
 30
0.0
 42
-0.4142135623731087
  0
SEQEND
  8
0
  0
POLYLINE
  8
0
 62
0
 70
1
 66
1
 10
0.0
 20
0.0
 30
0.0
  0
VERTEX
  8
0
 10
190.33642
 20
2.775894999999996
 30
0.0
  0
VERTEX
  8
0
 10
203.052339
 20
5.478747000000004
 30
0.0
 42
-0.41421356237308066
  0
VERTEX
  8
0
 10
203.645369
 20
5.093629
 30
0.0
  0
VERTEX
  8
0
 10
206.34822
 20
-7.62229
 30
0.0
 42
-0.41421356237316787
  0
VERTEX
  8
0
 10
205.963103
 20
-8.215319000000001
 30
0.0
  0
VERTEX
  8
0
 10
193.247184
 20
-10.918170999999996
 30
0.0
 42
-0.4142135623730986
  0
VERTEX
  8
0
 10
192.654154
 20
-10.533053000000002
 30
0.0
  0
VERTEX
  8
0
 10
189.951302
 20
2.1828659999999998
 30
0.0
 42
-0.4142135623730476
  0
SEQEND
  8
0
  0
POLYLINE
  8
0
 62
0
 70
1
 66
1
 10
0.0
 20
0.0
 30
0.0
  0
VERTEX
  8
0
 10
174.021154
 20
-14.493752999999998
 30
0.0
  0
VERTEX
  8
0
 10
171.318302
 20
-1.7778340000000006
 30
0.0
 42
-0.41421356237318824
  0
VERTEX
  8
0
 10
171.70342
 20
-1.1848050000000037
 30
0.0
  0
VERTEX
  8
0
 10
184.419339
 20
1.518047000000002
 30
0.0
 42
-0.41421356237307594
  0
VERTEX
  8
0
 10
185.012369
 20
1.1329289999999999
 30
0.0
  0
VERTEX
  8
0
 10
187.71522
 20
-11.58299
 30
0.0
 42
-0.4142135623731463
  0
VERTEX
  8
0
 10
187.330103
 20
-12.176018999999997
 30
0.0
  0
VERTEX
  8
0
 10
174.614184
 20
-14.878871000000006
 30
0.0
 42
-0.41421356237313045
  0
SEQEND
  8
0
  0
POLYLINE
  8
0
 62
0
 70
1
 66
1
 10
0.0
 20
0.0
 30
0.0
  0
VERTEX
  8
0
 10
184.595302
 20
-18.431234
 30
0.0
 42
-0.4142135623731081
  0
VERTEX
  8
0
 10
184.98042
 20
-17.838205
 30
0.0
  0
VERTEX
  8
0
 10
197.696339
 20
-15.135352999999991
 30
0.0
 42
-0.4142135623731416
  0
VERTEX
  8
0
 10
198.28936899999997
 20
-15.520471000000002
 30
0.0
  0
VERTEX
  8
0
 10
200.99222
 20
-28.23639
 30
0.0
 42
-0.41421356237316526
  0
VERTEX
  8
0
 10
200.607103
 20
-28.829419
 30
0.0
  0
VERTEX
  8
0
 10
187.891184
 20
-31.532271
 30
0.0
 42
-0.41421356237315177
  0
VERTEX
  8
0
 10
187.298154
 20
-31.147153
 30
0.0
  0
SEQEND
  8
0
  0
POLYLINE
  8
0
 62
0
 70
1
 66
1
 10
0.0
 20
0.0
 30
0.0
  0
VERTEX
  8
0
 10
203.229302
 20
-14.470534
 30
0.0
 42
-0.4142135623731081
  0
VERTEX
  8
0
 10
203.61442
 20
-13.877505
 30
0.0
  0
VERTEX
  8
0
 10
216.330339
 20
-11.174652999999996
 30
0.0
 42
-0.41421356237307694
  0
VERTEX
  8
0
 10
216.923369
 20
-11.559771
 30
0.0
  0
VERTEX
  8
0
 10
219.62622
 20
-24.27569
 30
0.0
 42
-0.41421356237312557
  0
VERTEX
  8
0
 10
219.241103
 20
-24.868719000000002
 30
0.0
  0
VERTEX
  8
0
 10
206.525184
 20
-27.571571
 30
0.0
 42
-0.4142135623730624
  0
VERTEX
  8
0
 10
205.932154
 20
-27.186453
 30
0.0
  0
SEQEND
  8
0
  0
POLYLINE
  8
0
 62
0
 70
1
 66
1
 10
0.0
 20
0.0
 30
0.0
  0
VERTEX
  8
0
 10
100.360129
 20
-18.840439
 30
0.0
  0
VERTEX
  8
0
 10
87.64421
 20
-16.137587000000003
 30
0.0
 42
-0.4142135623730956
  0
VERTEX
  8
0
 10
87.259093
 20
-15.544558
 30
0.0
  0
VERTEX
  8
0
 10
89.961944
 20
-2.8286390000000003
 30
0.0
 42
-0.41421356237319695
  0
VERTEX
  8
0
 10
90.554974
 20
-2.4435210000000005
 30
0.0
  0
VERTEX
  8
0
 10
103.270893
 20
-5.146372999999999
 30
0.0
 42
-0.41421356237309537
  0
VERTEX
  8
0
 10
103.656011
 20
-5.739402
 30
0.0
  0
VERTEX
  8
0
 10
100.953159
 20
-18.455321
 30
0.0
 42
-0.4142135623731334
  0
SEQEND
  8
0
  0
POLYLINE
  8
0
 62
0
 70
1
 66
1
 10
0.0
 20
0.0
 30
0.0
  0
VERTEX
  8
0
 10
166.34642
 20
-21.798905
 30
0.0
  0
VERTEX
  8
0
 10
179.062339
 20
-19.096053000000005
 30
0.0
 42
-0.41421356237314727
  0
VERTEX
  8
0
 10
179.655369
 20
-19.481171
 30
0.0
  0
VERTEX
  8
0
 10
182.35822
 20
-32.19709
 30
0.0
 42
-0.4142135623731497
  0
VERTEX
  8
0
 10
181.973103
 20
-32.790119
 30
0.0
  0
VERTEX
  8
0
 10
169.257184
 20
-35.492971
 30
0.0
 42
-0.41421356237308454
  0
VERTEX
  8
0
 10
168.664154
 20
-35.107853
 30
0.0
  0
VERTEX
  8
0
 10
165.961302
 20
-22.391934
 30
0.0
 42
-0.4142135623731061
  0
SEQEND
  8
0
  0
POLYLINE
  8
0
 62
0
 70
1
 66
1
 10
0.0
 20
0.0
 30
0.0
  0
VERTEX
  8
0
 10
137.69842
 20
-47.363905
 30
0.0
  0
VERTEX
  8
0
 10
150.414339
 20
-44.661053
 30
0.0
 42
-0.41421356237307466
  0
VERTEX
  8
0
 10
151.007369
 20
-45.046171
 30
0.0
  0
VERTEX
  8
0
 10
153.71022
 20
-57.76209
 30
0.0
 42
-0.41421356237306567
  0
VERTEX
  8
0
 10
153.325103
 20
-58.355119
 30
0.0
  0
VERTEX
  8
0
 10
140.609184
 20
-61.057971
 30
0.0
 42
-0.41421356237307466
  0
VERTEX
  8
0
 10
140.016154
 20
-60.672853
 30
0.0
  0
VERTEX
  8
0
 10
137.313302
 20
-47.956934
 30
0.0
 42
-0.41421356237318574
  0
SEQEND
  8
0
  0
POLYLINE
  8
0
 62
0
 70
1
 66
1
 10
0.0
 20
0.0
 30
0.0
  0
VERTEX
  8
0
 10
150.031154
 20
-39.068553
 30
0.0
  0
VERTEX
  8
0
 10
147.328302
 20
-26.352634
 30
0.0
 42
-0.41421356237304574
  0
VERTEX
  8
0
 10
147.71342
 20
-25.759605000000008
 30
0.0
  0
VERTEX
  8
0
 10
160.429339
 20
-23.056753
 30
0.0
 42
-0.41421356237307716
  0
VERTEX
  8
0
 10
161.022369
 20
-23.441871
 30
0.0
  0
VERTEX
  8
0
 10
163.72522
 20
-36.15779
 30
0.0
 42
-0.4142135623731668
  0
VERTEX
  8
0
 10
163.340103
 20
-36.750819
 30
0.0
  0
VERTEX
  8
0
 10
150.624184
 20
-39.453671
 30
0.0
 42
-0.4142135623730061
  0
SEQEND
  8
0
  0
POLYLINE
  8
0
 62
0
 70
1
 66
1
 10
0.0
 20
0.0
 30
0.0
  0
VERTEX
  8
0
 10
145.932302
 20
-65.600834
 30
0.0
 42
-0.4142135623730526
  0
VERTEX
  8
0
 10
146.31742
 20
-65.007805
 30
0.0
  0
VERTEX
  8
0
 10
159.033339
 20
-62.304953
 30
0.0
 42
-0.41421356237307383
  0
VERTEX
  8
0
 10
159.626369
 20
-62.690071
 30
0.0
  0
VERTEX
  8
0
 10
162.32922
 20
-75.40599
 30
0.0
 42
-0.41421356237304274
  0
VERTEX
  8
0
 10
161.944103
 20
-75.999019
 30
0.0
  0
VERTEX
  8
0
 10
149.228184
 20
-78.701871
 30
0.0
 42
-0.4142135623730706
  0
VERTEX
  8
0
 10
148.635154
 20
-78.316753
 30
0.0
  0
SEQEND
  8
0
  0
POLYLINE
  8
0
 62
0
 70
1
 66
1
 10
0.0
 20
0.0
 30
0.0
  0
VERTEX
  8
0
 10
43.465407
 20
-84.138135
 30
0.0
  0
VERTEX
  8
0
 10
46.168259
 20
-71.422216
 30
0.0
 42
-0.41421356237309503
  0
VERTEX
  8
0
 10
46.761289
 20
-71.037098
 30
0.0
  0
VERTEX
  8
0
 10
59.477208
 20
-73.73995
 30
0.0
 42
-0.4142135623731081
  0
VERTEX
  8
0
 10
59.862326
 20
-74.33298
 30
0.0
  0
VERTEX
  8
0
 10
57.159474
 20
-87.048899
 30
0.0
 42
-0.41421356237312035
  0
VERTEX
  8
0
 10
56.566444
 20
-87.434017
 30
0.0
  0
VERTEX
  8
0
 10
43.850525
 20
-84.731165
 30
0.0
 42
-0.414213562373091
  0
SEQEND
  8
0
  0
POLYLINE
  8
0
 62
0
 70
1
 66
1
 10
0.0
 20
0.0
 30
0.0
  0
VERTEX
  8
0
 10
171.959103
 20
-54.394419
 30
0.0
  0
VERTEX
  8
0
 10
159.243184
 20
-57.097271
 30
0.0
 42
-0.41421356237308604
  0
VERTEX
  8
0
 10
158.650154
 20
-56.712153
 30
0.0
  0
VERTEX
  8
0
 10
155.947302
 20
-43.996234
 30
0.0
 42
-0.4142135623731081
  0
VERTEX
  8
0
 10
156.33242
 20
-43.403205
 30
0.0
  0
VERTEX
  8
0
 10
169.048339
 20
-40.70035300000001
 30
0.0
 42
-0.41421356237317736
  0
VERTEX
  8
0
 10
169.641369
 20
-41.085471
 30
0.0
  0
VERTEX
  8
0
 10
172.34422
 20
-53.80139
 30
0.0
 42
-0.4142135623731081
  0
SEQEND
  8
0
  0
POLYLINE
  8
0
 62
0
 70
1
 66
1
 10
0.0
 20
0.0
 30
0.0
  0
VERTEX
  8
0
 10
206.908369
 20
-33.163971
 30
0.0
  0
VERTEX
  8
0
 10
209.61122
 20
-45.87989
 30
0.0
 42
-0.41421356237302237
  0
VERTEX
  8
0
 10
209.226103
 20
-46.472919
 30
0.0
  0
VERTEX
  8
0
 10
196.510184
 20
-49.175771
 30
0.0
 42
-0.414213562373127
  0
VERTEX
  8
0
 10
195.917154
 20
-48.790653
 30
0.0
  0
VERTEX
  8
0
 10
193.214302
 20
-36.074734
 30
0.0
 42
-0.41421356237318663
  0
VERTEX
  8
0
 10
193.59942
 20
-35.481705000000005
 30
0.0
  0
VERTEX
  8
0
 10
206.315339
 20
-32.778853
 30
0.0
 42
-0.41421356237315465
  0
SEQEND
  8
0
  0
POLYLINE
  8
0
 62
0
 70
1
 66
1
 10
0.0
 20
0.0
 30
0.0
  0
VERTEX
  8
0
 10
142.388369
 20
-27.402571
 30
0.0
  0
VERTEX
  8
0
 10
145.09122
 20
-40.11849
 30
0.0
 42
-0.4142135623730459
  0
VERTEX
  8
0
 10
144.706103
 20
-40.71151900000001
 30
0.0
  0
VERTEX
  8
0
 10
131.990184
 20
-43.414371
 30
0.0
 42
-0.4142135623730264
  0
VERTEX
  8
0
 10
131.397154
 20
-43.029253
 30
0.0
  0
VERTEX
  8
0
 10
128.694302
 20
-30.313334
 30
0.0
 42
-0.4142135623731081
  0
VERTEX
  8
0
 10
129.07942
 20
-29.720305
 30
0.0
  0
VERTEX
  8
0
 10
141.795339
 20
-27.017453000000003
 30
0.0
 42
-0.41421356237306484
  0
SEQEND
  8
0
  0
POLYLINE
  8
0
 62
0
 70
1
 66
1
 10
0.0
 20
0.0
 30
0.0
  0
VERTEX
  8
0
 10
180.963253
 20
-71.445045
 30
0.0
 42
-0.4142135623730462
  0
VERTEX
  8
0
 10
180.578135
 20
-72.038074
 30
0.0
  0
VERTEX
  8
0
 10
167.862217
 20
-74.740926
 30
0.0
 42
-0.41421356237307877
  0
VERTEX
  8
0
 10
167.269187
 20
-74.355808
 30
0.0
  0
VERTEX
  8
0
 10
164.566335
 20
-61.639889
 30
0.0
 42
-0.4142135623731433
  0
VERTEX
  8
0
 10
164.951453
 20
-61.04686000000001
 30
0.0
  0
VERTEX
  8
0
 10
177.667372
 20
-58.344008
 30
0.0
 42
-0.41421356237309737
  0
VERTEX
  8
0
 10
178.260401
 20
-58.729126
 30
0.0
  0
SEQEND
  8
0
  0
POLYLINE
  8
0
 62
0
 70
1
 66
1
 10
0.0
 20
0.0
 30
0.0
  0
VERTEX
  8
0
 10
215.527369
 20
-50.807571
 30
0.0
  0
VERTEX
  8
0
 10
218.23022
 20
-63.52349
 30
0.0
 42
-0.4142135623730811
  0
VERTEX
  8
0
 10
217.845103
 20
-64.116519
 30
0.0
  0
VERTEX
  8
0
 10
205.129184
 20
-66.819371
 30
0.0
 42
-0.41421356237307877
  0
VERTEX
  8
0
 10
204.536154
 20
-66.434253
 30
0.0
  0
VERTEX
  8
0
 10
201.833302
 20
-53.718334
 30
0.0
 42
-0.41421356237304935
  0
VERTEX
  8
0
 10
202.21842
 20
-53.125305
 30
0.0
  0
VERTEX
  8
0
 10
214.934339
 20
-50.422453
 30
0.0
 42
-0.41421356237316365
  0
SEQEND
  8
0
  0
POLYLINE
  8
0
 62
0
 70
1
 66
1
 10
0.0
 20
0.0
 30
0.0
  0
VERTEX
  8
0
 10
186.496184
 20
-70.780071
 30
0.0
 42
-0.4142135623730363
  0
VERTEX
  8
0
 10
185.903154
 20
-70.394953
 30
0.0
  0
VERTEX
  8
0
 10
183.200302
 20
-57.679034
 30
0.0
 42
-0.4142135623731081
  0
VERTEX
  8
0
 10
183.58542
 20
-57.086005
 30
0.0
  0
VERTEX
  8
0
 10
196.301339
 20
-54.38315299999999
 30
0.0
 42
-0.4142135623730796
  0
VERTEX
  8
0
 10
196.894369
 20
-54.768271
 30
0.0
  0
VERTEX
  8
0
 10
199.59722
 20
-67.48419
 30
0.0
 42
-0.41421356237312124
  0
VERTEX
  8
0
 10
199.212103
 20
-68.077219
 30
0.0
  0
SEQEND
  8
0
  0
POLYLINE
  8
0
 62
0
 70
1
 66
1
 10
0.0
 20
0.0
 30
0.0
  0
VERTEX
  8
0
 10
212.489052
 20
-84.730674
 30
0.0
  0
VERTEX
  8
0
 10
199.773133
 20
-87.433526
 30
0.0
 42
-0.41421356237307877
  0
VERTEX
  8
0
 10
199.180104
 20
-87.048408
 30
0.0
  0
VERTEX
  8
0
 10
196.477252
 20
-74.332489
 30
0.0
 42
-0.4142135623731898
  0
VERTEX
  8
0
 10
196.86237
 20
-73.73946
 30
0.0
  0
VERTEX
  8
0
 10
209.578289
 20
-71.036608
 30
0.0
 42
-0.41421356237307877
  0
VERTEX
  8
0
 10
210.171318
 20
-71.421726
 30
0.0
  0
VERTEX
  8
0
 10
212.87417
 20
-84.137644
 30
0.0
 42
-0.41421356237313106
  0
SEQEND
  8
0
  0
POLYLINE
  8
0
 62
0
 70
1
 66
1
 10
0.0
 20
0.0
 30
0.0
  0
VERTEX
  8
0
 10
174.581302
 20
-40.035534
 30
0.0
 42
-0.41421356237311135
  0
VERTEX
  8
0
 10
174.96642
 20
-39.442505
 30
0.0
  0
VERTEX
  8
0
 10
187.682339
 20
-36.739653
 30
0.0
 42
-0.41421356237307383
  0
VERTEX
  8
0
 10
188.275369
 20
-37.124771
 30
0.0
  0
VERTEX
  8
0
 10
190.97822
 20
-49.84069
 30
0.0
 42
-0.4142135623731276
  0
VERTEX
  8
0
 10
190.593103
 20
-50.43371900000001
 30
0.0
  0
VERTEX
  8
0
 10
177.877184
 20
-53.136571
 30
0.0
 42
-0.41421356237307383
  0
VERTEX
  8
0
 10
177.284154
 20
-52.751453
 30
0.0
  0
SEQEND
  8
0
  0
POLYLINE
  8
0
 62
0
 70
1
 66
1
 10
0.0
 20
0.0
 30
0.0
  0
VERTEX
  8
0
 10
250.628746
 20
-50.650102
 30
0.0
 42
-0.4142135623730992
  0
VERTEX
  8
0
 10
251.128746
 20
-50.15010199999999
 30
0.0
  0
VERTEX
  8
0
 10
264.128746
 20
-50.150102
 30
0.0
 42
-0.41421356237309087
  0
VERTEX
  8
0
 10
264.628746
 20
-50.650102
 30
0.0
  0
VERTEX
  8
0
 10
264.628746
 20
-63.650102
 30
0.0
 42
-0.4142135623730867
  0
VERTEX
  8
0
 10
264.128746
 20
-64.150102
 30
0.0
  0
VERTEX
  8
0
 10
251.128746
 20
-64.150102
 30
0.0
 42
-0.4142135623731325
  0
VERTEX
  8
0
 10
250.628746
 20
-63.650102
 30
0.0
  0
SEQEND
  8
0
  0
CIRCLE
  8
0
 62
0
 10
-49.48
 20
-92.2
 30
-5.55112e-17
 40
2.0
  0
CIRCLE
  8
0
 62
0
 10
-49.630461
 20
-37.06685
 30
0.0
 40
2.0
  0
CIRCLE
  8
0
 62
0
 10
-49.630461
 20
17.215069
 30
0.0
 40
2.0
  0
CIRCLE
  8
0
 62
0
 10
59.325605
 20
-98.422166
 30
0.0
 40
2.0
  0
CIRCLE
  8
0
 62
0
 10
59.295433
 20
17.215069
 30
0.0
 40
2.0
  0
CIRCLE
  8
0
 62
0
 10
147.795448
 20
17.215069
 30
0.0
 40
2.0
  0
CIRCLE
  8
0
 62
0
 10
147.828567
 20
-108.633104
 30
0.0
 40
2.0
  0
CIRCLE
  8
0
 62
0
 10
236.32456
 20
-93.759283
 30
0.0
 40
2.0
  0
POLYLINE
  8
0
 62
0
 70
1
 66
1
 10
0.0
 20
0.0
 30
0.0
  0
VERTEX
  8
0
 10
119.411218
 20
-116.267766
 30
0.0
 42
-0.05067691942900718
  0
VERTEX
  8
0
 10
118.80776
 20
-116.206446
 30
0.0
  0
VERTEX
  8
0
 10
36.508914000000004
 20
-99.306382
 30
0.0
 42
0.050718526737538426
  0
VERTEX
  8
0
 10
35.904958
 20
-99.245062
 30
0.0
  0
VERTEX
  8
0
 10
-50.579485
 20
-99.255407
 30
0.0
 42
-0.4141832219341692
  0
VERTEX
  8
0
 10
-53.579983
 20
-96.256215
 30
0.0
  0
VERTEX
  8
0
 10
-53.611208
 20
19.565432
 30
0.0
 42
-0.41429252636751285
  0
VERTEX
  8
0
 10
-50.611208
 20
22.566241
 30
0.0
  0
VERTEX
  8
0
 10
321.65995
 20
22.566241000000005
 30
0.0
 42
-0.4142135623730738
  0
VERTEX
  8
0
 10
324.65995
 20
19.566241
 30
0.0
  0
VERTEX
  8
0
 10
324.65995
 20
-96.244566
 30
0.0
 42
-0.41416200843458256
  0
VERTEX
  8
0
 10
321.660478
 20
-99.244566
 30
0.0
  0
VERTEX
  8
0
 10
221.024241
 20
-99.26228
 30
0.0
 42
0.0507623842435375
  0
VERTEX
  8
0
 10
220.419792
 20
-99.323913
 30
0.0
  0
VERTEX
  8
0
 10
138.423005
 20
-116.206134
 30
0.0
 42
-0.050806502575742735
  0
VERTEX
  8
0
 10
137.818028
 20
-116.267766
 30
0.0
  0
SEQEND
  8
0
  0
CIRCLE
  8
0
 62
0
 10
320.69996
 20
17.215069
 30
0.0
 40
2.0
  0
CIRCLE
  8
0
 62
0
 10
320.69996
 20
-37.06685
 30
0.0
 40
2.0
  0
CIRCLE
  8
0
 62
0
 10
320.69996
 20
-92.243792
 30
0.0
 40
2.0
  0
CIRCLE
  8
0
 62
0
 10
236.295451
 20
17.215069
 30
0.0
 40
2.0
  0
ENDSEC
  0
EOF
